<?xml version="1.0" standalone="no"?>
<!DOCTYPE svg PUBLIC "-//W3C//DTD SVG 20010904//EN"
 "http://www.w3.org/TR/2001/REC-SVG-20010904/DTD/svg10.dtd">
<svg version="1.0" xmlns="http://www.w3.org/2000/svg"
 width="851.000000pt" height="851.000000pt" viewBox="0 0 851.000000 851.000000"
 preserveAspectRatio="xMidYMid meet">

<g transform="translate(0.000000,851.000000) scale(0.100000,-0.100000)"
fill="#000000" stroke="none">
<path d="M0 4255 l0 -4255 4253 2 4252 3 3 4253 2 4252 -4255 0 -4255 0 0
-4255z m2800 935 l0 -170 -795 0 -795 0 0 -55 0 -55 -180 0 -180 0 0 218 c0
120 3 222 7 225 3 4 442 7 975 7 l968 0 0 -170z m874 -390 c177 -306 331 -573
344 -594 l23 -38 342 593 342 594 193 3 c105 1 192 -1 192 -4 0 -11 -1064
-1864 -1070 -1864 -5 0 -1056 1827 -1066 1855 -6 14 15 15 187 13 l193 -3 320
-555z m3554 388 l2 -168 -800 0 -800 0 0 -55 0 -55 -180 0 -180 0 0 218 c0
120 3 222 7 225 3 4 443 6 977 5 l971 -3 3 -167z m363 157 c37 -20 69 -70 69
-111 0 -47 -38 -97 -88 -112 -37 -12 -46 -12 -79 5 -50 25 -76 62 -75 111 1
92 92 148 173 107z m-4791 -770 l0 -165 -975 0 -975 0 0 165 0 165 975 0 975
0 0 -165z m4430 0 l0 -165 -980 0 -980 0 0 165 0 165 980 0 980 0 0 -165z
m-6020 -390 l0 -55 795 0 795 0 0 -170 0 -170 -975 0 -975 0 0 225 0 225 180
0 180 0 0 -55z m4420 0 l0 -55 800 0 800 0 0 -170 0 -170 -977 2 -978 3 -3
223 -2 222 180 0 180 0 0 -55z m-3157 -1174 c25 -20 25 -242 0 -262 -12 -10
-53 -14 -159 -14 -176 0 -177 1 -182 110 -6 108 4 164 31 175 35 15 291 8 310
-9z m608 -81 l119 -100 0 100 0 100 30 0 30 0 0 -150 c0 -147 0 -150 -22 -150
-12 0 -69 41 -140 100 l-118 101 0 -101 0 -100 -30 0 -30 0 0 150 c0 147 0
150 21 150 13 0 71 -41 140 -100z m687 -22 l3 -118 104 0 105 0 0 -30 0 -31
-142 3 -143 3 -3 134 c-1 74 0 141 3 149 3 8 17 12 37 10 l33 -3 3 -117z m667
-28 l0 -145 -35 0 -35 0 -3 134 c-1 74 0 141 3 149 3 8 17 12 37 10 l33 -3 0
-145z m598 50 l117 -100 0 100 0 100 30 0 30 0 0 -150 c0 -147 0 -150 -22
-150 -12 0 -69 41 -140 100 l-118 101 0 -101 0 -100 -30 0 -30 0 0 150 c0 149
0 150 23 150 13 0 67 -38 140 -100z m907 70 l0 -30 -110 0 -110 0 0 -30 0 -30
65 0 c63 0 65 -1 65 -25 0 -24 -2 -25 -65 -25 l-65 0 0 -35 0 -35 116 0 115 0
-3 -27 -3 -28 -150 0 -150 0 -3 134 c-1 74 0 141 2 148 4 10 41 13 151 13
l145 0 0 -30z"/>
<path d="M7494 5324 c-58 -28 -71 -102 -28 -153 21 -26 33 -31 68 -31 53 0 83
21 95 67 14 51 -7 99 -53 118 -43 18 -44 18 -82 -1z m77 -24 c23 -13 25 -43 4
-60 -13 -11 -13 -15 0 -33 17 -25 19 -37 6 -37 -6 0 -18 14 -28 30 -9 17 -23
30 -30 30 -8 0 -13 -12 -13 -30 0 -16 -4 -30 -10 -30 -6 0 -10 30 -10 70 l0
70 31 0 c17 0 39 -5 50 -10z"/>
<path d="M7510 5271 c0 -17 6 -21 31 -21 24 0 30 4 27 18 -2 10 -14 18 -31 20
-22 3 -27 -1 -27 -17z"/>
<path d="M2210 2880 l0 -90 105 0 105 0 0 90 0 90 -105 0 -105 0 0 -90z"/>
</g>
</svg>
